<svg width="118" height="118" viewBox="0 0 118 118" fill="none" xmlns="http://www.w3.org/2000/svg">
<path d="M86.1078 90.5441C94.6365 90.5441 101.646 83.651 101.646 75.0055V23.3659C101.646 22.4312 100.829 21.6134 99.894 21.6134H85.29V16.356C85.29 15.4213 84.4722 14.6035 83.5375 14.6035C82.6029 14.6035 81.785 15.4213 81.785 16.356V21.6134H40.894V16.356C40.894 15.4213 40.0761 14.6035 39.1415 14.6035C38.2068 14.6035 37.389 15.4213 37.389 16.356V21.6134H21.6167C20.6821 21.6134 19.8643 22.4312 19.8643 23.3659V75.1223C19.8643 81.7817 14.49 87.0392 7.8306 87.0392C6.89595 87.0392 6.07812 87.857 6.07812 88.7916C6.07812 89.7263 6.89595 90.5441 7.8306 90.5441H19.8643V101.643C19.8643 102.578 20.6821 103.396 21.6167 103.396H99.894C100.829 103.396 101.646 102.578 101.646 101.643V92.2966C101.646 91.3619 100.829 90.5441 99.894 90.5441C98.9593 90.5441 98.1415 91.3619 98.1415 92.2966V99.8906H23.3692V90.5441H86.1078ZM17.6445 87.0392C21.2662 84.1184 23.3692 79.7956 23.3692 75.1223V25.1184H37.389V30.3758C37.389 31.3104 38.2068 32.1283 39.1415 32.1283C40.0761 32.1283 40.894 31.3104 40.894 30.3758V25.1184H81.785V30.3758C81.785 31.3104 82.6029 32.1283 83.5375 32.1283C84.4722 32.1283 85.29 31.3104 85.29 30.3758V25.1184H98.1415V75.0055C98.1415 81.6649 92.7672 87.0392 86.1078 87.0392H17.6445Z" fill="#3E94C2"/>
<path d="M54.9109 56.7794C56.6634 55.2606 57.5981 53.1576 57.4812 50.9378C57.7149 46.9655 54.5604 43.4606 50.5882 43.3438C47.6674 43.2269 44.8634 44.8626 43.5783 47.5497C43.2278 48.4844 43.5783 49.419 44.5129 49.8863C45.3307 50.2368 46.2654 49.8863 46.7327 49.1853C47.5505 47.5497 49.303 46.615 51.1723 46.9655C52.9248 47.4329 54.2099 49.1853 53.9763 51.0547C53.9763 54.7933 50.4713 55.6111 48.7189 55.8447C48.1347 55.8447 47.6674 55.9616 47.5505 55.9616C46.6159 56.0784 45.7981 56.8962 45.9149 57.8309C46.0317 58.7655 46.8496 59.5834 47.7842 59.4665H48.9525C50.3545 59.4665 53.1585 59.5834 54.9109 61.219C56.0793 62.3873 56.7802 64.023 56.6634 65.6586C56.7802 68.3457 54.7941 70.6824 52.107 71.0329C49.1862 71.617 45.3307 70.4487 44.1624 67.6448C43.8119 66.7101 42.7604 66.3596 41.8258 66.7101C40.8911 67.0606 40.5406 68.1121 40.8911 69.0467C42.4099 73.019 46.6159 74.7715 50.4713 74.7715C51.2892 74.7715 51.9901 74.6546 52.808 74.5378C57.1307 73.9537 60.2852 70.0982 60.1684 65.6586C60.2852 62.9715 59.2337 60.4012 57.2476 58.5319C56.5466 57.7141 55.7288 57.1299 54.9109 56.7794Z" fill="#3E94C2"/>
<path d="M74.8924 43.3444C74.1914 43.1107 73.4905 43.2275 73.0231 43.6949L67.0647 49.6533C66.3637 50.3543 66.4806 51.5226 67.1815 52.1067C67.8825 52.6909 68.934 52.6909 69.5182 52.1067L72.439 49.186V73.6038C72.439 74.5384 73.2568 75.3563 74.1914 75.3563C75.1261 75.3563 75.9439 74.5384 75.9439 73.6038V44.98C75.9439 44.279 75.4766 43.578 74.8924 43.3444Z" fill="#3E94C2"/>
</svg>
