<svg width="1920" height="57" viewBox="0 0 1920 57" fill="none" xmlns="http://www.w3.org/2000/svg">
<path d="M1929.99 22.3305L1958.67 41.978C1973.29 51.9971 2009.85 51.9971 2024.48 41.978L2134 56.5635L2134 0.000205994L-212.659 8.42191e-07L-212.659 28.0353L-120.162 41.9779C-105.537 51.9969 -68.9744 51.997 -54.3494 41.9779L-25.6692 22.3303C-11.0442 12.3112 25.5181 12.3113 40.1431 22.3303L68.823 41.9778C83.448 51.9969 120.011 51.9969 134.636 41.9778L163.316 22.3304C177.941 12.3113 214.503 12.3113 229.128 22.3304L257.808 41.9779C272.433 51.9969 308.995 51.9969 323.62 41.9779L352.3 22.3304C366.925 12.3113 403.487 12.3113 418.112 22.3304L446.792 41.9779C461.417 51.997 497.979 51.997 512.604 41.9779L541.284 22.3304C555.909 12.3113 592.472 12.3114 607.097 22.3304L635.776 41.9779C650.401 51.997 686.964 51.997 701.589 41.9779L730.269 22.3304C744.894 12.3114 781.456 12.3114 796.081 22.3304L824.761 41.9779C839.386 51.997 875.948 51.997 890.573 41.9779L919.253 22.3305C933.878 12.3114 970.44 12.3114 985.065 22.3305L1013.74 41.9779C1028.37 51.997 1064.93 51.997 1079.56 41.978L1108.24 22.3305C1122.86 12.3114 1159.42 12.3114 1174.05 22.3305L1202.73 41.978C1217.35 51.997 1253.92 51.997 1268.54 41.978L1297.22 22.3305C1311.85 12.3114 1348.41 12.3114 1363.03 22.3305L1391.71 41.978C1406.34 51.997 1442.9 51.9971 1457.53 41.978L1486.21 22.3305C1500.83 12.3114 1537.39 12.3114 1552.02 22.3305L1580.7 41.978C1595.32 51.9971 1631.88 51.9971 1646.51 41.978L1675.19 22.3305C1689.81 12.3115 1726.38 12.3115 1741 22.3305L1769.68 41.978C1784.31 51.9971 1820.87 51.9971 1835.49 41.978L1864.17 22.3305C1878.8 12.3115 1915.36 12.3115 1929.99 22.3305Z" fill="white"/>
</svg>
