<svg width="1440" height="188" viewBox="0 0 1440 188" fill="none" xmlns="http://www.w3.org/2000/svg">
<path d="M1595.65 35.6097L1624.33 15.1721C1638.95 4.75002 1675.51 4.75005 1690.14 15.1721L1799.66 0L1799.66 258.56L-547 258.56L-547 29.6755L-454.502 15.1722C-439.877 4.75019 -403.315 4.75015 -388.69 15.1722L-360.01 35.61C-345.385 46.032 -308.823 46.0319 -294.198 35.6099L-265.518 15.1723C-250.893 4.75022 -214.33 4.75021 -199.705 15.1722L-171.025 35.6098C-156.4 46.0319 -119.838 46.0319 -105.213 35.6098L-76.5331 15.1722C-61.9081 4.75018 -25.3457 4.75018 -10.7207 15.1722L17.9591 35.6098C32.5841 46.0319 69.1465 46.0319 83.7715 35.6098L112.451 15.1722C127.076 4.75017 163.639 4.75017 178.264 15.1722L206.943 35.6098C221.568 46.0319 258.131 46.0319 272.756 35.6098L301.436 15.1722C316.061 4.75015 352.623 4.75015 367.248 15.1722L395.928 35.6098C410.553 46.0318 447.115 46.0318 461.74 35.6098L490.42 15.1722C505.045 4.75014 541.607 4.75013 556.232 15.1722L584.912 35.6098C599.537 46.0318 636.099 46.0318 650.724 35.6098L679.404 15.1721C694.029 4.75011 730.592 4.7501 745.217 15.1721L773.896 35.6098C788.521 46.0318 825.084 46.0318 839.709 35.6098L868.389 15.1721C883.014 4.75009 919.576 4.75009 934.201 15.1721L962.881 35.6097C977.506 46.0318 1014.07 46.0318 1028.69 35.6097L1057.37 15.1721C1072 4.75008 1108.56 4.75007 1123.19 15.1721L1151.87 35.6097C1166.49 46.0318 1203.05 46.0318 1217.68 35.6097L1246.36 15.1721C1260.98 4.75006 1297.54 4.75006 1312.17 15.1721L1340.85 35.6097C1355.47 46.0317 1392.04 46.0317 1406.66 35.6097L1435.34 15.1721C1449.97 4.75004 1486.53 4.75004 1501.15 15.1721L1529.83 35.6097C1544.46 46.0317 1581.02 46.0317 1595.65 35.6097Z" fill="white"/>
</svg>
