<svg width="102" height="100" viewBox="0 0 102 100" fill="none" xmlns="http://www.w3.org/2000/svg">
<path d="M73.3021 15.8978C75.8981 15.8978 78.4941 16.9598 80.3821 18.8478C82.2701 20.7358 83.4501 23.2138 83.4501 25.9278C83.5681 26.9898 84.2761 27.8158 85.3381 27.9338C86.2821 27.9338 87.1081 27.1078 87.1081 26.1638C86.9901 20.7358 91.1201 16.2518 96.5481 16.0158H96.9021C97.8461 16.0158 98.6721 15.1898 98.6721 14.2458C98.6721 13.3018 97.8461 12.4758 96.9021 12.4758H96.7841C94.3061 12.4758 91.8281 11.4138 90.0581 9.64378C88.4061 7.87378 87.3441 5.63178 87.2261 3.15378C87.2261 3.03578 87.2261 2.91778 87.2261 2.68178C87.2261 2.56378 87.2261 2.32778 87.1081 2.20978C86.9901 1.38378 86.2821 0.793781 85.3381 0.675781C84.3941 0.675781 83.5681 1.50178 83.5681 2.44578V3.03578C83.2141 8.34578 78.7301 12.3578 73.4201 12.2398H73.1841C72.2401 12.2398 71.4141 13.0658 71.4141 14.0098C71.5321 15.0718 72.2401 15.8978 73.3021 15.8978ZM85.4561 9.28978C86.0461 10.3518 86.7541 11.2958 87.5801 12.1218C88.4061 12.9478 89.3501 13.6558 90.2941 14.2458C88.1701 15.5438 86.4001 17.3138 85.2201 19.5558C84.6301 18.3758 83.8041 17.3138 82.8601 16.4878C82.0341 15.6618 81.0901 15.0718 80.1461 14.4818C82.2701 13.1838 84.1581 11.4138 85.4561 9.28978Z" fill="#3E94C2"/>
<path d="M57.2522 67.4637C46.1602 67.1097 37.5462 57.7877 37.9002 46.6957C38.2542 35.6037 47.5762 26.9897 58.6682 27.3437C69.7602 27.6977 78.3742 37.0197 78.0202 48.1117C78.0202 49.0557 78.7282 49.8817 79.6722 49.8817C80.6162 49.8817 81.4422 49.1737 81.4422 48.2297C81.9142 35.2497 71.6482 24.2757 58.6682 23.8037C45.6882 23.3317 34.7142 33.5977 34.2422 46.5777C33.7702 59.5577 44.0362 70.5317 57.0162 71.0037C57.9602 71.0037 58.7862 70.2957 58.7862 69.2337C59.0222 68.1717 58.1962 67.4637 57.2522 67.4637Z" fill="#3E94C2"/>
<path d="M22.5617 26.1635C29.0517 26.1635 34.3617 20.8535 34.3617 14.3635C34.3617 7.87348 29.0517 2.56348 22.5617 2.56348C16.0717 2.56348 10.7617 7.87348 10.7617 14.3635C10.7617 20.8535 15.9537 26.1635 22.5617 26.1635ZM22.5617 6.10348C27.1637 6.10348 30.8217 9.76148 30.8217 14.3635C30.8217 18.9655 27.1637 22.6235 22.5617 22.6235C17.9597 22.6235 14.3017 18.9655 14.3017 14.3635C14.3017 9.76148 17.9597 6.10348 22.5617 6.10348Z" fill="#3E94C2"/>
<path d="M82.7396 54.4844C72.0016 54.1305 62.9156 62.5084 62.5616 73.2464C62.2076 83.9844 70.5856 93.0705 81.3236 93.4245H82.0316C92.7696 93.6605 101.62 85.0464 101.856 74.3084C102.092 63.4524 93.4776 54.6024 82.7396 54.4844ZM93.0056 85.5184C86.5156 91.5364 76.4856 91.1824 70.4676 84.8104C64.4496 78.4384 64.8036 68.2905 71.1756 62.2725C74.1256 59.5585 78.0196 58.0244 82.0316 58.0244H82.6216C91.4716 58.3784 98.3156 65.6945 97.9616 74.5445C97.9616 78.6745 96.0736 82.6864 93.0056 85.5184Z" fill="#3E94C2"/>
<path d="M15.4806 43.8643C6.98462 43.8643 0.140625 50.7083 0.140625 59.2043C0.140625 67.7003 6.98462 74.5443 15.4806 74.5443C23.9766 74.5443 30.8206 67.7003 30.8206 59.2043C30.8206 50.7083 23.8586 43.8643 15.4806 43.8643ZM15.4806 71.0043C8.99062 71.0043 3.68062 65.6943 3.68062 59.2043C3.68062 52.7143 8.99062 47.4043 15.4806 47.4043C21.9706 47.4043 27.2806 52.7143 27.2806 59.2043C27.2806 65.6943 21.9706 71.0043 15.4806 71.0043Z" fill="#3E94C2"/>
<path d="M49.1114 86.816C47.3414 86.816 45.6894 86.108 44.3914 84.928C43.0934 83.748 42.3854 82.096 42.2674 80.326C42.2674 80.208 42.2674 80.09 42.2674 79.972C42.2674 79.028 41.4414 78.202 40.4974 78.084C39.5534 78.084 38.7274 78.91 38.7274 79.854V80.326C38.6094 84.22 34.9514 86.698 31.5294 86.816H31.2934C30.3494 86.816 29.5234 87.642 29.5234 88.586C29.5234 89.53 30.3494 90.356 31.2934 90.356C33.1814 90.356 34.9514 91.064 36.2494 92.48C37.6654 93.778 38.3734 95.548 38.4914 97.436C38.4914 98.498 39.3174 99.324 40.3794 99.324C41.3234 99.324 42.1494 98.498 42.1494 97.554C42.0314 93.778 44.9814 90.592 48.8754 90.356H49.1114C50.0554 90.356 50.8814 89.53 50.8814 88.586C50.8814 87.642 50.0554 86.816 49.1114 86.816ZM40.2614 91.654C39.7894 90.946 39.3174 90.356 38.7274 89.884C38.2554 89.412 37.7834 89.058 37.1934 88.704C38.3734 87.996 39.4354 86.934 40.2614 85.754C40.6154 86.344 41.0874 86.934 41.6774 87.524C42.1494 87.996 42.6214 88.35 43.0934 88.704C42.1494 89.412 41.0874 90.474 40.2614 91.654Z" fill="#3E94C2"/>
<path d="M58.5516 32.0639C50.6456 31.8279 44.0376 38.3179 43.6836 46.6959C43.6836 47.6399 44.3916 48.4659 45.3356 48.5839C46.2796 48.5839 47.1056 47.8759 47.1056 46.8139C47.3416 40.4419 52.2976 35.3679 58.3156 35.6039C59.2596 35.6039 60.0856 34.8959 60.0856 33.9519C60.3216 32.8899 59.4956 32.0639 58.5516 32.0639Z" fill="#3E94C2"/>
<path d="M81.5616 60.9727C75.4256 60.9727 70.3516 65.9287 70.3516 72.0647C70.3516 73.0087 71.0596 73.8347 72.0036 73.8347C72.9476 73.8347 73.7736 73.1267 73.7736 72.0647C73.7736 67.8167 77.1956 64.3947 81.4436 64.3947C82.3876 64.3947 83.2136 63.6867 83.2136 62.7427C83.2136 62.7427 83.2136 62.7427 83.2136 62.6247C83.3316 61.7987 82.5056 60.9727 81.5616 60.9727Z" fill="#3E94C2"/>
<path d="M13.7091 50.3535C9.46106 50.3535 6.03906 54.3655 6.03906 59.2035C6.03906 60.1475 6.86506 60.9735 7.80906 60.9735C8.75306 60.9735 9.57906 60.1475 9.57906 59.2035C9.57906 56.2535 11.4671 53.8935 13.7091 53.8935C14.6531 53.8935 15.4791 53.0675 15.4791 52.1235C15.4791 51.1795 14.6531 50.3535 13.7091 50.3535Z" fill="#3E94C2"/>
</svg>
