<svg width="102" height="102" viewBox="0 0 102 102" fill="none" xmlns="http://www.w3.org/2000/svg">
<g clip-path="url(#clip0_204_183)">
<path d="M74.8027 47.5988C68.911 47.5798 63.1766 49.4984 58.4827 53.0592C57.7316 53.6253 57.5816 54.6932 58.1478 55.4443C58.7139 56.1954 59.7818 56.3453 60.5329 55.7792C66.9388 50.9585 75.3442 49.6946 82.8845 52.4183C92.7457 55.9638 99.1275 65.542 98.6021 76.008C98.0767 86.4741 90.7675 95.3649 80.6008 97.9049C70.4341 100.445 59.8023 96.0364 54.4163 87.0473C53.9327 86.2422 52.8881 85.9815 52.083 86.465C51.2779 86.9486 51.0172 87.9932 51.5008 88.7983C57.6593 99.0667 69.8084 104.1 81.4245 101.196C93.0405 98.2917 101.391 88.1329 101.993 76.1744C102.594 64.2159 95.3048 53.2705 84.0388 49.2155C81.0787 48.1392 77.9523 47.592 74.8027 47.5988Z" fill="#3E94C2"/>
<path d="M65.4318 78.2451L59.9425 76.7746C59.3498 76.5984 58.7082 76.7578 58.267 77.1909C57.8257 77.624 57.6545 78.2626 57.8197 78.8584C57.9849 79.4542 58.4606 79.9133 59.0619 80.0573L63.5907 81.2711L62.3769 85.8016C62.2586 86.2383 62.3193 86.7042 62.5455 87.096C62.7718 87.4878 63.1448 87.7733 63.5822 87.8892C63.7262 87.9289 63.8748 87.9489 64.0242 87.9487C64.7934 87.9479 65.4662 87.4305 65.6647 86.6873L67.1352 81.1963L73.1022 77.7436V84.6371L69.0834 88.6559C68.4391 89.323 68.4483 90.3833 69.1041 91.039C69.7598 91.6948 70.8201 91.704 71.4872 91.0597L74.8022 87.7447L78.1172 91.0597C78.7842 91.704 79.8445 91.6948 80.5003 91.039C81.156 90.3833 81.1652 89.323 80.521 88.6559L76.5022 84.6371V77.7436L82.4726 81.1895L83.9431 86.6805C84.1415 87.4237 84.8143 87.941 85.5836 87.9419C85.7329 87.9421 85.8816 87.9221 86.0256 87.8824C86.9318 87.6393 87.4697 86.7081 87.2275 85.8016L86.0222 81.2711L90.551 80.0573C91.1523 79.9133 91.628 79.4542 91.7932 78.8584C91.9584 78.2626 91.7871 77.624 91.3459 77.1909C90.9046 76.7578 90.263 76.5984 89.6704 76.7746L84.1811 78.2451L78.2022 74.7992L84.1726 71.3533L89.6619 72.8238C89.8059 72.8635 89.9545 72.8835 90.1039 72.8833C90.9569 72.8829 91.6775 72.2503 91.7885 71.4045C91.8995 70.5588 91.3665 69.7617 90.5425 69.5411L86.0222 68.3273L87.236 63.7968C87.4737 62.8917 86.9352 61.9647 86.0312 61.7228C85.1272 61.4809 84.1977 62.0151 83.9516 62.9179L82.4811 68.4089L76.5022 71.8548V64.9613L80.521 60.9425C81.1652 60.2755 81.156 59.2152 80.5003 58.5594C79.8445 57.9037 78.7842 57.8945 78.1172 58.5387L74.8022 61.8537L71.4872 58.5387C70.8201 57.8945 69.7598 57.9037 69.1041 58.5594C68.4483 59.2152 68.4391 60.2755 69.0834 60.9425L73.1022 64.9613V71.8548L67.1318 68.4089L65.6613 62.9179C65.4152 62.0151 64.4857 61.4809 63.5817 61.7228C62.6777 61.9647 62.1392 62.8917 62.3769 63.7968L63.5907 68.3273L59.0619 69.5411C58.2375 69.7618 57.7045 70.5593 57.816 71.4054C57.9274 72.2514 58.6488 72.8837 59.5022 72.8833C59.6515 72.8835 59.8002 72.8635 59.9442 72.8238L65.4335 71.3533L71.4022 74.7992L65.4318 78.2451Z" fill="#3E94C2"/>
<path d="M0 42.4989V76.4989C0.00562255 82.1299 4.56903 86.6933 10.2 86.6989H44.2C49.831 86.6933 54.3944 82.1299 54.4 76.4989V42.4989C54.3944 36.868 49.831 32.3046 44.2 32.2989H29.4457L27.2901 27.7752C25.6735 24.3828 27.1088 20.3221 30.498 18.6989L61.1813 4.06703C64.5744 2.45473 68.6324 3.88974 70.2576 7.27663L84.8946 37.9633C85.8024 39.842 85.7873 42.0354 84.8538 43.9014C84.5675 44.4473 84.5991 45.1054 84.9363 45.6213C85.2736 46.1373 85.8638 46.4302 86.4787 46.3869C87.0936 46.3436 87.6368 45.9709 87.8985 45.4127C89.3014 42.6112 89.3246 39.3173 87.9614 36.4962L73.3261 5.81123C70.8885 0.739029 64.8115 -1.41146 59.7261 0.998526L29.0343 15.6389C26.5924 16.804 24.7135 18.8915 23.8109 21.442C22.9083 23.9926 23.056 26.7973 24.2216 29.2389L25.6802 32.2989H10.2C4.56903 32.3046 0.00562255 36.868 0 42.4989H0ZM51 42.4989V76.4989C51 80.2545 47.9555 83.2989 44.2 83.2989H10.2C6.44446 83.2989 3.4 80.2545 3.4 76.4989V42.4989C3.4 38.7434 6.44446 35.6989 10.2 35.6989H44.2C47.9555 35.6989 51 38.7434 51 42.4989Z" fill="#3E94C2"/>
<path d="M45.8984 69.6992C44.9596 69.6992 44.1984 70.4603 44.1984 71.3992V76.4992H39.0984C38.1596 76.4992 37.3984 77.2603 37.3984 78.1992C37.3984 79.1381 38.1596 79.8992 39.0984 79.8992H44.1984C46.0762 79.8992 47.5984 78.377 47.5984 76.4992V71.3992C47.5984 70.4603 46.8373 69.6992 45.8984 69.6992Z" fill="#3E94C2"/>
<path d="M58.308 12.9709L64.1186 10.1999L66.8182 15.8592C67.0999 16.449 67.6947 16.825 68.3482 16.8265C68.6016 16.8257 68.8515 16.7676 69.0792 16.6565C69.923 16.2536 70.283 15.245 69.885 14.3989L67.1854 8.74134C66.343 7.07786 64.3405 6.37215 62.6413 7.13994L56.8443 9.90414C56.0632 10.3429 55.7566 11.3126 56.1436 12.1206C56.5306 12.9286 57.4782 13.2977 58.3097 12.9641L58.308 12.9709Z" fill="#3E94C2"/>
<path d="M7.29852 50.5011C7.96237 51.1648 9.03847 51.1648 9.70232 50.5011L18.2023 42.0011C18.8466 41.3341 18.8374 40.2738 18.1816 39.618C17.5259 38.9623 16.4656 38.9531 15.7985 39.5973L7.29852 48.0973C6.63487 48.7612 6.63487 49.8373 7.29852 50.5011Z" fill="#3E94C2"/>
<path d="M7.30028 58.2973C6.85836 58.7242 6.68112 59.3562 6.8367 59.9506C6.99227 60.545 7.45645 61.0091 8.05082 61.1647C8.64519 61.3203 9.27726 61.1431 9.70408 60.7011L28.4041 42.0011C29.0483 41.3341 29.0391 40.2738 28.3834 39.618C27.7276 38.9623 26.6673 38.9531 26.0003 39.5973L7.30028 58.2973Z" fill="#3E94C2"/>
</g>
<defs>
<clipPath id="clip0_204_183">
<rect width="102" height="102" fill="white"/>
</clipPath>
</defs>
</svg>
