<svg width="1920" height="304" viewBox="0 0 1920 304" fill="none" xmlns="http://www.w3.org/2000/svg">
<path d="M1930.32 11.6948L1961.32 27.4182C1977.14 35.4362 2013.38 30.6491 2026.57 18.8014L2137.06 18.922C2150.25 7.07432 2130.48 -2.94819 2101.48 0.881461L-232.223 1.91801L-232.078 232.419L-99.6091 299.596C-83.7982 307.614 -47.5507 302.827 -34.3634 290.979L-8.50249 267.745C4.68484 255.898 40.9324 251.111 56.7432 259.129L87.7487 274.852C103.56 282.87 139.808 278.083 152.996 266.235L178.856 243.002C192.043 231.154 228.291 226.367 244.102 234.385L275.107 250.109C290.918 258.127 327.166 253.34 340.353 241.492L366.214 218.259C379.401 206.411 415.649 201.624 431.459 209.642L462.465 225.365C478.276 233.383 514.523 228.596 527.711 216.749L553.571 193.515C566.759 181.668 603.006 176.881 618.817 184.899L649.822 200.622C665.633 208.64 701.881 203.853 715.068 192.005L740.929 168.772C754.116 156.924 790.364 152.137 806.175 160.155L837.18 175.878C852.991 183.896 889.238 179.109 902.426 167.262L928.286 144.029C941.473 132.181 977.721 127.394 993.532 135.412L1024.54 151.135C1040.35 159.153 1076.6 154.366 1089.78 142.518L1115.64 119.285C1128.83 107.437 1165.08 102.65 1180.89 110.668L1211.89 126.392C1227.71 134.41 1263.95 129.623 1277.14 117.775L1303 94.5417C1316.19 82.6941 1352.44 77.907 1368.25 85.925L1399.25 101.648C1415.06 109.666 1451.31 104.879 1464.5 93.0317L1490.36 69.7983C1503.55 57.9507 1539.79 53.1636 1555.6 61.1816L1586.61 76.905C1602.42 84.923 1638.67 80.1359 1651.86 68.2882L1677.72 45.0549C1690.9 33.2073 1727.15 28.4202 1742.96 36.4382L1773.97 52.1615C1789.78 60.1796 1826.03 55.3925 1839.21 43.5448L1865.07 20.3115C1878.26 8.46386 1914.51 3.6768 1930.32 11.6948Z" fill="white"/>
</svg>
