<svg width="80" height="80" viewBox="0 0 80 80" fill="none" xmlns="http://www.w3.org/2000/svg">
<path d="M36.4811 5.5552C38.5895 4.06218 41.4105 4.06218 43.5189 5.5552C45.9132 7.25068 48.8818 7.92825 51.7746 7.43952C54.322 7.00915 56.8637 8.23315 58.1155 10.4931C59.537 13.0595 61.9176 14.958 64.736 15.7728C67.2179 16.4904 68.9768 18.6959 69.124 21.2752C69.2913 24.2043 70.6124 26.9477 72.7982 28.9046L74.4658 27.0421L72.7982 28.9046C74.7229 30.6279 75.3506 33.3782 74.3642 35.766C73.244 38.4775 73.244 41.5225 74.3642 44.234C75.3506 46.6218 74.7229 49.3721 72.7982 51.0954C70.6124 53.0523 69.2913 55.7957 69.124 58.7248C68.9768 61.3041 67.2179 63.5096 64.736 64.2272C61.9176 65.042 59.537 66.9405 58.1155 69.5069C56.8637 71.7669 54.322 72.9909 51.7746 72.5605C48.8818 72.0718 45.9132 72.7493 43.5189 74.4448C41.4105 75.9378 38.5895 75.9378 36.4811 74.4448C34.0868 72.7493 31.1182 72.0718 28.2254 72.5605C25.678 72.9909 23.1363 71.7669 21.8845 69.5069C20.463 66.9405 18.0824 65.042 15.264 64.2272L14.5696 66.6288L15.264 64.2272C12.7821 63.5096 11.0232 61.3041 10.876 58.7248C10.7087 55.7957 9.38758 53.0523 7.20184 51.0954C5.27709 49.3721 4.64935 46.6218 5.63578 44.234C6.75597 41.5225 6.75597 38.4775 5.63578 35.766C4.64935 33.3782 5.27709 30.6279 7.20183 28.9046C9.38758 26.9477 10.7087 24.2043 10.876 21.2752C11.0232 18.6959 12.7821 16.4904 15.264 15.7728C18.0824 14.958 20.463 13.0595 21.8845 10.4931C23.1363 8.23315 25.678 7.00915 28.2254 7.43952C31.1182 7.92825 34.0868 7.25068 36.4811 5.5552Z" fill="#3E94C2" stroke="white" stroke-width="5"/>
</svg>
