<svg width="471" height="473" viewBox="0 0 471 473" fill="none" xmlns="http://www.w3.org/2000/svg">
<path d="M222.386 4.69648C230.179 -1.06578 240.821 -1.06578 248.614 4.69648C255.056 9.46011 263.575 10.3555 270.867 7.03543C279.688 3.01936 290.097 5.23186 296.522 12.4885C301.833 18.4875 309.98 21.1345 317.803 19.4031C327.266 17.3087 336.987 21.637 341.763 30.0708C345.711 37.043 353.129 41.326 361.141 41.2589C370.833 41.1778 379.442 47.4327 382.36 56.6751C384.772 64.3158 391.138 70.0475 398.989 71.6477C408.486 73.5834 415.606 81.4915 416.538 91.1386C417.309 99.1138 422.344 106.044 429.691 109.241C438.578 113.109 443.898 122.325 442.805 131.955C441.9 139.916 445.385 147.742 451.906 152.397C459.794 158.028 463.083 168.148 460.011 177.341C457.471 184.94 459.252 193.319 464.663 199.228C471.208 206.376 472.321 216.959 467.404 225.312C463.34 232.217 463.34 240.783 467.404 247.688C472.321 256.041 471.208 266.624 464.663 273.772C459.252 279.681 457.471 288.06 460.011 295.659C463.083 304.852 459.794 314.972 451.906 320.603C445.385 325.258 441.9 333.084 442.805 341.045C443.898 350.675 438.578 359.891 429.691 363.759C422.344 366.956 417.309 373.886 416.538 381.861C415.606 391.508 408.486 399.417 398.989 401.352C391.138 402.952 384.772 408.684 382.36 416.325C379.442 425.567 370.833 431.822 361.141 431.741C353.129 431.674 345.711 435.957 341.763 442.929C336.987 451.363 327.266 455.691 317.803 453.597C309.98 451.865 301.833 454.513 296.522 460.512C290.097 467.768 279.688 469.981 270.867 465.965C263.575 462.645 255.056 463.54 248.614 468.304C240.821 474.066 230.179 474.066 222.386 468.304C215.944 463.54 207.425 462.645 200.133 465.965C191.312 469.981 180.903 467.768 174.478 460.512C169.167 454.513 161.02 451.865 153.197 453.597C143.734 455.691 134.013 451.363 129.237 442.929C125.289 435.957 117.871 431.674 109.859 431.741C100.167 431.822 91.5578 425.567 88.64 416.325C86.228 408.684 79.8622 402.952 72.0113 401.352C62.5145 399.417 55.3939 391.508 54.4616 381.861C53.6908 373.886 48.6558 366.956 41.3092 363.759C32.4224 359.891 27.1016 350.675 28.1954 341.045C29.0995 333.084 25.6155 325.258 19.0941 320.603C11.2057 314.972 7.91732 304.852 10.9894 295.659C13.529 288.06 11.7481 279.681 6.33709 273.772C-0.208193 266.624 -1.32053 256.041 3.59556 247.688C7.65968 240.783 7.65968 232.217 3.59556 225.312C-1.32053 216.959 -0.208193 206.376 6.33709 199.228C11.7481 193.319 13.529 184.94 10.9894 177.341C7.91732 168.148 11.2057 158.028 19.0941 152.397C25.6155 147.742 29.0995 139.916 28.1954 131.955C27.1016 122.325 32.4224 113.109 41.3092 109.241C48.6558 106.044 53.6908 99.1138 54.4616 91.1386C55.3939 81.4915 62.5145 73.5834 72.0113 71.6477C79.8622 70.0475 86.228 64.3158 88.64 56.6751C91.5578 47.4327 100.167 41.1778 109.859 41.2589C117.871 41.326 125.289 37.043 129.237 30.0708C134.013 21.637 143.734 17.3087 153.197 19.4031C161.02 21.1345 169.167 18.4875 174.478 12.4885C180.903 5.23186 191.312 3.01936 200.133 7.03543C207.425 10.3555 215.944 9.46011 222.386 4.69648Z" fill="#C9EBE4"/>
</svg>
