<svg width="1920" height="115" viewBox="0 0 1920 115" fill="none" xmlns="http://www.w3.org/2000/svg">
<path fill-rule="evenodd" clip-rule="evenodd" d="M14.0897 27.3581C-0.535339 37.3772 -37.0979 37.3772 -51.7229 27.3581L-80.4026 7.71063C-95.0276 -2.30845 -131.59 -2.30842 -146.215 7.71066L-268.747 91.6534C-283.372 101.672 -265.091 114.196 -235.841 114.196H-112.669H75.0362H76.315H264.021H265.299H453.005H454.284H641.989H643.268H830.974H832.252H1019.96H1021.24H1208.94H1210.22H1397.93H1399.21H1586.91H1588.19H1775.9H1777.17H1964.88H2088.05C2117.3 114.196 2135.58 101.672 2120.96 91.6533L1998.43 7.71061C1983.8 -2.30846 1947.24 -2.30849 1932.61 7.71057L1903.93 27.3582C1889.31 37.3773 1852.75 37.3772 1838.12 27.3581L1809.44 7.71067C1794.82 -2.30842 1758.25 -2.30843 1743.63 7.71066L1714.95 27.3581C1700.32 37.3772 1663.76 37.3772 1649.14 27.3581L1620.46 7.71064C1605.83 -2.30844 1569.27 -2.30844 1554.64 7.71064L1525.96 27.3581C1511.34 37.3772 1474.78 37.3772 1460.15 27.3581L1431.47 7.71065C1416.85 -2.30843 1380.28 -2.30843 1365.66 7.71065L1336.98 27.3581C1322.35 37.3772 1285.79 37.3772 1271.17 27.3581L1242.49 7.71065C1227.86 -2.30843 1191.3 -2.30843 1176.68 7.71065L1148 27.3581C1133.37 37.3772 1096.81 37.3772 1082.18 27.3581L1053.5 7.71065C1038.88 -2.30843 1002.32 -2.30844 987.691 7.71065L959.011 27.3581C944.386 37.3771 907.824 37.3772 893.199 27.3581L864.519 7.71063C849.894 -2.30845 813.332 -2.30845 798.707 7.71063L770.027 27.3581C755.402 37.3772 718.84 37.3772 704.215 27.3581L675.535 7.71063C660.91 -2.30845 624.347 -2.30845 609.722 7.71063L581.043 27.3581C566.418 37.3772 529.855 37.3772 515.23 27.3581L486.551 7.71063C471.926 -2.30844 435.363 -2.30844 420.738 7.71063L392.058 27.3581C377.433 37.3772 340.871 37.3772 326.246 27.3581L297.566 7.71063C282.941 -2.30844 246.379 -2.30844 231.754 7.71063L203.074 27.3581C188.449 37.3772 151.887 37.3772 137.262 27.3581L108.582 7.71064C93.9568 -2.30844 57.3943 -2.30844 42.7693 7.71063L14.0897 27.3581Z" fill="#288B77"/>
</svg>
